<svg id="Layer_1" data-name="Layer 1" xmlns="http://www.w3.org/2000/svg" viewBox="0 0 65.04 36.73"><defs><style>.cls-1{fill:none;stroke:#fff;stroke-width:2px;}.cls-2{fill:#fff;}</style></defs><title>Shapelaptop32</title><g id="Page-1"><g id="Landing"><g id="Laptop"><path id="Shape" class="cls-1" d="M58.73,30.86v-27a2.57,2.57,0,0,0-2.57-2.57H9A2.57,2.57,0,0,0,6.41,3.84v27H3.61a2.57,2.57,0,1,0,0,5.14H61.52a2.57,2.57,0,1,0,0-5.14Z" transform="translate(-0.04 -0.27)"/></g></g></g><g id="Page-1-2" data-name="Page-1"><g id="Landing-2" data-name="Landing"><g id="Laptop-2" data-name="Laptop"><circle id="Oval" class="cls-2" cx="33.5" cy="4.28" r="1.24"/></g></g></g><g id="Page-1-3" data-name="Page-1"><g id="Landing-3" data-name="Landing"><g id="Laptop-3" data-name="Laptop"><path id="Shape-2" data-name="Shape" class="cls-2" d="M28.89,19.63a.75.75,0,1,0,.75.75A.75.75,0,0,0,28.89,19.63Zm9.13-3a.78.78,0,0,0-.75.75c0,.62-.09.75-.75.75a.78.78,0,0,0-.75.75v0c0,.58-.09.71-.75.71h0a.77.77,0,0,0-.71.75.78.78,0,0,0,.75.75.74.74,0,0,0,.75-.71v0c0-.53.18-.75.75-.75h0a.78.78,0,0,0,.75-.75c0-.53.18-.75.75-.75a.78.78,0,0,0,.75-.75A.81.81,0,0,0,38,16.61Zm-4.56,1.51c-.66,0-.75-.13-.75-.75a.75.75,0,1,0-1.51,0c0,.58-.09.75-.75.75a.75.75,0,1,0,0,1.51.75.75,0,0,0,.75-.75v0c0-.53.18-.75.75-.75s.75.22.75.75a.75.75,0,1,0,1.51,0A.74.74,0,0,0,33.46,18.12Z" transform="translate(-0.04 -0.27)"/></g></g></g></svg>