<?xml version="1.0" encoding="UTF-8"?>
<svg width="26px" height="25px" viewBox="0 0 26 25" version="1.1" xmlns="http://www.w3.org/2000/svg" xmlns:xlink="http://www.w3.org/1999/xlink">
    <!-- Generator: sketchtool 50.2 (55047) - http://www.bohemiancoding.com/sketch -->
    <title>B545D832-0DC3-4D96-A922-4B9065B02990</title>
    <desc>Created with sketchtool.</desc>
    <defs></defs>
    <g id="Page-1" stroke="none" stroke-width="1" fill="none" fill-rule="evenodd">
        <g id="Landing2" transform="translate(-1214.000000, -984.000000)" fill="#FFFFFF" fill-rule="nonzero">
            <path d="M1237.90804,990.381678 C1236.76222,988.418463 1235.208,986.864182 1233.24496,985.718486 C1231.28163,984.572731 1229.13825,984 1226.81332,984 C1224.48868,984 1222.3446,984.572907 1220.38168,985.718486 C1218.41846,986.864124 1216.8643,988.418463 1215.71849,990.381678 C1214.57285,992.344836 1214,994.488619 1214,996.812969 C1214,999.605041 1214.8146,1002.11574 1216.4442,1004.34572 C1218.07363,1006.57587 1220.17861,1008.11905 1222.75897,1008.97543 C1223.05933,1009.03118 1223.28168,1008.99197 1223.42625,1008.85879 C1223.57088,1008.72544 1223.64311,1008.55843 1223.64311,1008.35846 C1223.64311,1008.32509 1223.64024,1008.02491 1223.63469,1007.45755 C1223.62897,1006.8902 1223.62628,1006.39525 1223.62628,1005.97293 L1223.24253,1006.03931 C1222.99786,1006.08413 1222.6892,1006.10312 1222.31655,1006.09775 C1221.94408,1006.09255 1221.55741,1006.05351 1221.15707,1005.98093 C1220.75655,1005.909 1220.38402,1005.74216 1220.03919,1005.48078 C1219.69453,1005.2194 1219.44986,1004.87725 1219.30523,1004.45488 L1219.13839,1004.07095 C1219.02719,1003.81535 1218.85212,1003.53141 1218.61294,1003.22018 C1218.37376,1002.90866 1218.13189,1002.69747 1217.88722,1002.58627 L1217.77041,1002.50265 C1217.69257,1002.44708 1217.62034,1002.38005 1217.55355,1002.30227 C1217.48682,1002.22449 1217.43685,1002.14666 1217.40349,1002.0687 C1217.37006,1001.99069 1217.39776,1001.9267 1217.48688,1001.87651 C1217.57599,1001.82631 1217.73704,1001.80194 1217.97073,1001.80194 L1218.30428,1001.85179 C1218.52674,1001.89637 1218.80192,1002.02955 1219.13015,1002.25213 C1219.45821,1002.47454 1219.7279,1002.76368 1219.93926,1003.11944 C1220.19521,1003.57559 1220.50358,1003.92317 1220.86524,1004.16235 C1221.2266,1004.40153 1221.59095,1004.52091 1221.95793,1004.52091 C1222.32491,1004.52091 1222.64187,1004.4931 1222.90892,1004.43776 C1223.17568,1004.38213 1223.42596,1004.2985 1223.65965,1004.18736 C1223.75975,1003.44183 1224.03229,1002.8691 1224.47705,1002.46876 C1223.84313,1002.40214 1223.27321,1002.3018 1222.76698,1002.16839 C1222.26104,1002.03481 1221.73821,1001.81801 1221.19885,1001.51742 C1220.65919,1001.21723 1220.21151,1000.84447 1219.8557,1000.39977 C1219.49982,999.954839 1219.20776,999.370713 1218.97992,998.647918 C1218.75196,997.924831 1218.63795,997.090715 1218.63795,996.145338 C1218.63795,994.799265 1219.07739,993.653802 1219.95609,992.708308 C1219.54447,991.696313 1219.58333,990.561837 1220.07279,989.304995 C1220.39535,989.204777 1220.87371,989.279985 1221.50762,989.530149 C1222.14165,989.78043 1222.60587,989.994832 1222.90074,990.172594 C1223.19561,990.350298 1223.43186,990.500888 1223.60986,990.623019 C1224.64447,990.333936 1225.71215,990.189366 1226.8132,990.189366 C1227.91425,990.189366 1228.98217,990.333936 1230.01684,990.623019 L1230.65081,990.222791 C1231.08435,989.955738 1231.59631,989.711008 1232.18546,989.488543 C1232.77496,989.266194 1233.22574,989.204953 1233.53732,989.30517 C1234.03765,990.56207 1234.08223,991.696488 1233.67049,992.708483 C1234.54914,993.653977 1234.98875,994.799732 1234.98875,996.145513 C1234.98875,997.090891 1234.87433,997.927636 1234.64672,998.656274 C1234.41882,999.385029 1234.12425,999.968571 1233.76288,1000.40813 C1233.4011,1000.84762 1232.95056,1001.21747 1232.4112,1001.51759 C1231.87171,1001.81795 1231.34871,1002.03475 1230.84277,1002.16834 C1230.3366,1002.30192 1229.76667,1002.40231 1229.13276,1002.46905 C1229.71093,1002.96938 1230.00007,1003.75914 1230.00007,1004.83798 L1230.00007,1008.35799 C1230.00007,1008.55796 1230.06961,1008.72491 1230.2088,1008.85832 C1230.34782,1008.9915 1230.56737,1009.03071 1230.86773,1008.9749 C1233.44844,1008.11864 1235.55342,1006.5754 1237.18279,1004.34525 C1238.81198,1002.11528 1239.62687,999.604574 1239.62687,996.812502 C1239.62629,994.488443 1239.05315,992.344836 1237.90804,990.381678 Z" id="Shape"></path>
        </g>
    </g>
</svg>