<?xml version="1.0" encoding="UTF-8"?>
<svg width="9px" height="9px" viewBox="0 0 9 9" version="1.1" xmlns="http://www.w3.org/2000/svg" xmlns:xlink="http://www.w3.org/1999/xlink">
    <!-- Generator: sketchtool 50.2 (55047) - http://www.bohemiancoding.com/sketch -->
    <title>B0ABA41F-3300-4E92-A8A5-907AEE356F66</title>
    <desc>Created with sketchtool.</desc>
    <defs></defs>
    <g id="Page-1" stroke="none" stroke-width="1" fill="none" fill-rule="evenodd">
        <g id="Landing2" transform="translate(-1295.000000, -47.000000)" fill="#FFFFFF">
            <g id="Visit-Nano" transform="translate(1182.000000, 39.000000)">
                <path d="M113.375,13.4005849 L119.363,13.4005849 L117.6065,15.5783672 C117.46475,15.7556494 117.46475,16.0445205 117.6065,16.2218028 L118.1195,16.8670383 C118.2605,17.0443206 118.49,17.0443206 118.6325,16.8670383 L121.89425,12.8120438 C122.03525,12.6320618 122.03525,12.3440906 121.89425,12.1668083 L118.65275,8.13431157 C118.511,7.95522948 118.28075,7.95522948 118.13975,8.13431157 L117.6275,8.77954705 C117.485,8.95772923 117.485,9.24660034 117.6275,9.42388261 L119.38325,11.6007649 L113.375,11.6007649 C113.16725,11.6007649 113,11.8014449 113,12.0507199 L113,12.9506299 C113,13.1981052 113.16725,13.4005849 113.375,13.4005849" id="Fill-85"></path>
            </g>
        </g>
    </g>
</svg>