<?xml version="1.0" encoding="UTF-8"?>
<svg width="972px" height="378px" viewBox="0 0 972 378" version="1.1" xmlns="http://www.w3.org/2000/svg" xmlns:xlink="http://www.w3.org/1999/xlink">
    <!-- Generator: sketchtool 50.2 (55047) - http://www.bohemiancoding.com/sketch -->
    <title>F18D9F38-FA30-4DAE-B547-9708AB26E77E</title>
    <desc>Created with sketchtool.</desc>
    <defs></defs>
    <g id="Page-1" stroke="none" stroke-width="1" fill="none" fill-rule="evenodd">
        <g id="Landing2" transform="translate(-468.000000, -682.000000)" fill="#315495">
            <path d="M1431.62454,682 C1472.75122,682 1506.0915,713.326116 1506.0915,751.968665 C1506.0915,790.609338 1472.75122,821.93733 1431.62454,821.93733 C1374.31486,821.93733 1357.15757,840.953675 1357.15757,891.905996 C1357.15757,893.621107 1356.97351,895.109163 1356.66942,896.4471 C1354.13464,932.92981 1322.16078,961.872784 1282.6906,961.872784 C1282.16644,961.872784 1281.68229,961.739554 1281.16013,961.728295 C1225.2789,962.124234 1208.4157,981.240033 1208.4157,1031.65755 C1208.4157,1033.72545 1208.1096,1035.41053 1207.67547,1036.93237 C1204.8526,1073.15424 1173.02678,1101.81011 1133.75467,1101.81011 C1092.62599,1101.81011 1059.28771,1070.484 1059.28771,1031.84145 C1059.28771,995.724656 1088.52072,966.348212 1125.91025,962.615874 C1128.16295,962.064186 1130.73974,961.690765 1133.94873,961.690765 C1198.20055,961.690765 1208.17962,947.791607 1208.39369,893.512271 C1208.38169,892.964336 1208.22164,892.455807 1208.22164,891.905996 C1208.22164,855.457063 1237.99282,825.864823 1275.8725,822.582843 C1277.86312,822.201915 1280.04779,821.93733 1282.6906,821.93733 C1347.67064,821.93733 1357.15757,807.794229 1357.15757,751.968665 C1357.15757,713.326116 1390.49585,682 1431.62454,682 Z M543.952242,955.154658 C585.899215,955.154658 619.904483,985.788132 619.904483,1023.57627 C619.904483,1061.3644 585.899215,1091.99788 543.952242,1091.99788 C502.003228,1091.99788 468,1061.3644 468,1023.57627 C468,985.788132 502.003228,955.154658 543.952242,955.154658 Z M993.380281,822.595978 C1031.18994,825.941759 1060.8891,855.502099 1060.8891,891.905996 C1060.8891,930.546668 1027.54882,961.872784 986.420135,961.872784 C945.293451,961.872784 911.953169,930.546668 911.953169,891.905996 C911.953169,891.682693 912.02119,891.480033 912.023191,891.258607 C911.873144,840.811062 894.627826,821.935454 837.570229,821.935454 L837.580232,821.927948 L837.562227,821.929824 L837.570229,821.935454 C780.260555,821.935454 763.103264,840.951799 763.103264,891.905996 C763.103264,893.788115 762.857188,895.366242 762.493076,896.796127 C759.772236,933.113706 727.894405,961.872784 688.550272,961.872784 C647.423588,961.872784 614.083306,930.546668 614.083306,891.905996 C614.083306,855.410151 643.92851,825.787887 681.876213,822.567831 C683.782801,822.209421 685.88545,821.963601 688.386221,821.952342 C688.444239,821.952342 688.494254,821.935454 688.550272,821.935454 C688.562275,821.935454 688.584282,821.939207 688.584282,821.939207 C688.604288,821.939207 688.616292,821.935454 688.634298,821.935454 C753.33025,821.935454 763.007234,807.8843 763.093261,752.668596 C763.09126,752.428405 763.019238,752.208856 763.019238,751.966789 C763.019238,713.326116 796.357519,682 837.486203,682 C878.612887,682 911.953169,713.326116 911.953169,751.966789 C911.953169,751.998689 911.945167,752.02496 911.945167,752.054984 L912.035194,751.966789 C912.035194,807.792352 921.524121,821.935454 986.50416,821.935454 C989.172984,821.935454 991.377663,822.207545 993.380281,822.595978 Z" id="Combined-Shape"></path>
        </g>
    </g>
</svg>