<?xml version="1.0" encoding="UTF-8"?>
<svg width="25px" height="20px" viewBox="0 0 25 20" version="1.1" xmlns="http://www.w3.org/2000/svg" xmlns:xlink="http://www.w3.org/1999/xlink">
    <!-- Generator: sketchtool 50.2 (55047) - http://www.bohemiancoding.com/sketch -->
    <title>6366EFEA-B5B0-4B50-87AB-7E420C05B465</title>
    <desc>Created with sketchtool.</desc>
    <defs></defs>
    <g id="Page-1" stroke="none" stroke-width="1" fill="none" fill-rule="evenodd">
        <g id="Landing2" transform="translate(-1279.000000, -987.000000)" fill="#FFFFFF">
            <path d="M1303.60768,989.368154 C1302.7032,989.770293 1301.72832,990.043802 1300.70605,990.1616 C1301.75134,989.537404 1302.5502,988.547627 1302.92932,987.368289 C1301.95173,987.947803 1300.87259,988.368899 1299.72033,988.595017 C1298.79961,987.614718 1297.48758,987 1296.03744,987 C1293.24954,987 1290.98836,989.259833 1290.98836,992.047729 C1290.98836,992.443098 1291.03304,992.831697 1291.11834,993.20134 C1286.92363,992.987408 1283.20283,990.978065 1280.71282,987.923431 C1280.27683,988.670842 1280.02904,989.537404 1280.02904,990.463543 C1280.02904,992.214271 1280.91998,993.757836 1282.27534,994.665019 C1281.44804,994.640647 1280.66949,994.41182 1279.98707,994.034053 L1279.98707,994.099045 C1279.98707,996.544377 1281.72832,998.584862 1284.0396,999.047932 C1283.61174,999.163022 1283.16627,999.22666 1282.70862,999.22666 C1282.38366,999.22666 1282.06547,999.195518 1281.75675,999.134588 C1282.39991,1001.13987 1284.26572,1002.60084 1286.47546,1002.64011 C1284.74504,1003.99546 1282.56916,1004.79974 1280.20371,1004.79974 C1279.79615,1004.79974 1279.39402,1004.77943 1279,1004.73069 C1281.23546,1006.16593 1283.8866,1007 1286.73814,1007 C1296.0239,1007 1301.10141,999.306547 1301.10141,992.634013 C1301.10141,992.414664 1301.09735,992.198023 1301.08923,991.982736 C1302.0763,991.267822 1302.92932,990.380949 1303.60768,989.368154" id="Fill-1"></path>
        </g>
    </g>
</svg>