<?xml version="1.0" encoding="UTF-8"?>
<svg width="14px" height="16px" viewBox="0 0 14 16" version="1.1" xmlns="http://www.w3.org/2000/svg" xmlns:xlink="http://www.w3.org/1999/xlink">
    <!-- Generator: sketchtool 50.2 (55047) - http://www.bohemiancoding.com/sketch -->
    <title>73CDBD42-979F-465D-81CD-B64FB6E8AEA3</title>
    <desc>Created with sketchtool.</desc>
    <defs></defs>
    <g id="Page-1" stroke="none" stroke-width="1" fill="none" fill-rule="evenodd">
        <g id="Landing2" transform="translate(-471.000000, -640.000000)" fill="#FFFFFF" fill-rule="nonzero">
            <g id="Group-3" transform="translate(126.000000, 592.000000)">
                <g id="Linux" transform="translate(328.000000, 34.000000)">
                    <path d="M23.5561699,17.9095454 C23.5561699,17.9625203 23.503195,17.9625203 23.503195,17.9625203 L23.4502202,17.9625203 C23.3972453,17.9625203 23.3972453,17.9095454 23.3442704,17.8565705 C23.3442704,17.8565705 23.2912956,17.8035957 23.2912956,17.7506208 C23.2912956,17.6976459 23.2912956,17.6976459 23.3442704,17.6976459 L23.4502202,17.7506208 C23.503195,17.8035957 23.5561699,17.8565705 23.5561699,17.9095454 M22.6026223,17.3797967 C22.6026223,17.1149224 22.4966725,16.9559977 22.3377479,16.9559977 C22.3377479,16.9559977 22.3377479,17.0089726 22.284773,17.0089726 L22.284773,17.1149224 L22.4436976,17.1149224 C22.4436976,17.2208721 22.4966725,17.273847 22.4966725,17.3797967 L22.6026223,17.3797967 M24.4567427,17.1149224 C24.5626924,17.1149224 24.6156673,17.2208721 24.6686422,17.3797967 L24.7745919,17.3797967 C24.7216171,17.3268218 24.7216171,17.273847 24.7216171,17.2208721 C24.7216171,17.1678972 24.7216171,17.1149224 24.6686422,17.0619475 C24.6156673,17.0089726 24.5626924,16.9559977 24.5097176,16.9559977 C24.5097176,16.9559977 24.4567427,17.0089726 24.4037678,17.0089726 C24.4037678,17.0619475 24.4567427,17.0619475 24.4567427,17.1149224 M22.8674966,17.9625203 C22.8145217,17.9625203 22.8145217,17.9625203 22.8145217,17.9095454 C22.8145217,17.8565705 22.8145217,17.8035957 22.8674966,17.7506208 C22.9734463,17.7506208 23.0264212,17.6976459 23.0264212,17.6976459 C23.0793961,17.6976459 23.0793961,17.7506208 23.0793961,17.7506208 C23.0793961,17.8035957 23.0264212,17.8565705 22.9204715,17.9625203 L22.8674966,17.9625203 M22.284773,17.9095454 C22.0728736,17.8035957 22.0198987,17.6446711 22.0198987,17.3797967 C22.0198987,17.2208721 22.0198987,17.1149224 22.1258484,17.0089726 C22.1788233,16.9030229 22.284773,16.850048 22.3907228,16.850048 C22.4966725,16.850048 22.5496474,16.9030229 22.6555971,17.0089726 C22.708572,17.1678972 22.7615469,17.3268218 22.7615469,17.4857464 L22.7615469,17.5387213 L22.7615469,17.5916962 L22.8145217,17.5916962 L22.8145217,17.5387213 C22.8674966,17.5387213 22.8674966,17.4327716 22.8674966,17.2208721 C22.8674966,17.0619475 22.8674966,16.9030229 22.7615469,16.7440983 C22.6555971,16.5851737 22.5496474,16.4792239 22.3377479,16.4792239 C22.1788233,16.4792239 22.0198987,16.5851737 21.9669238,16.7440983 C21.8609741,16.9559977 21.8397841,17.1149224 21.8397841,17.3797967 C21.8397841,17.5916962 21.9139489,17.8035957 22.1258484,18.0154951 C22.1788233,17.9625203 22.2317982,17.9625203 22.284773,17.9095454 M28.9066318,25.3790021 C28.9596067,25.3790021 28.9596067,25.3578121 28.9596067,25.3101348 C28.9596067,25.19359 28.9066318,25.0558554 28.7477072,24.9022283 C28.5887826,24.7433036 28.3239082,24.6426514 28.006059,24.6002715 C27.9530841,24.594974 27.9001093,24.594974 27.9001093,24.594974 C27.8471344,24.584379 27.8471344,24.584379 27.7941595,24.584379 C27.7411847,24.5790815 27.6352349,24.5684866 27.58226,24.5578916 C27.7411847,24.0652253 27.7941595,23.6308314 27.7941595,23.2494123 C27.7941595,22.7196636 27.6882098,22.3488395 27.4763103,22.0309903 C27.2644108,21.7131411 27.0525113,21.5542165 26.787637,21.5012416 C26.7346621,21.5542165 26.7346621,21.5542165 26.7346621,21.6071913 C26.9995365,21.7131411 27.2644108,21.9250406 27.4233354,22.2428898 C27.58226,22.6137139 27.6352349,22.9315631 27.6352349,23.3023872 C27.6352349,23.5990465 27.58226,24.0387379 27.3703606,24.6002715 C27.1584611,24.6850313 26.9465616,24.8810383 26.787637,25.1882926 C26.787637,25.2359699 26.787637,25.2624574 26.8406119,25.2624574 C26.8406119,25.2624574 26.8935867,25.21478 26.9465616,25.1247227 C27.0525113,25.0346654 27.1054862,24.9446082 27.211436,24.8545509 C27.3703606,24.7644936 27.4763103,24.7168162 27.6352349,24.7168162 C27.9001093,24.7168162 28.1649836,24.7538986 28.3239082,24.8280634 C28.5358077,24.8969308 28.6417574,24.9710956 28.6947323,25.0558554 C28.7477072,25.1353177 28.8006821,25.2094825 28.8536569,25.2783498 C28.8536569,25.3472172 28.9066318,25.3790021 28.9066318,25.3790021 M24.0329437,17.6976459 C23.9799689,17.6446711 23.9799689,17.5387213 23.9799689,17.4327716 C23.9799689,17.2208721 23.9799689,17.1149224 24.0859186,16.9559977 C24.1918684,16.850048 24.2978181,16.7970731 24.4037678,16.7970731 C24.5626924,16.7970731 24.6686422,16.9030229 24.7745919,17.0089726 C24.8275668,17.1678972 24.8805417,17.273847 24.8805417,17.4327716 C24.8805417,17.6976459 24.7745919,17.8565705 24.5626924,17.9095454 C24.5626924,17.9095454 24.6156673,17.9625203 24.6686422,17.9625203 C24.7745919,17.9625203 24.8275668,18.0154951 24.9335165,18.06847 C24.9864914,17.7506208 25.0394663,17.5387213 25.0394663,17.273847 C25.0394663,16.9559977 24.9864914,16.7440983 24.8805417,16.5851737 C24.7216171,16.426249 24.5626924,16.3732742 24.350793,16.3732742 C24.1918684,16.3732742 24.0329437,16.426249 23.8740191,16.5321988 C23.7680694,16.6911234 23.7150945,16.7970731 23.7150945,16.9559977 C23.7150945,17.2208721 23.7680694,17.4327716 23.8740191,17.6446711 C23.926994,17.6446711 23.9799689,17.6976459 24.0329437,17.6976459 M24.6686422,18.5452438 C23.9799689,19.0220177 23.4502202,19.2339172 23.0264212,19.2339172 C22.6555971,19.2339172 22.284773,19.0749926 21.9669238,18.8101182 C22.0198987,18.9160679 22.0728736,19.0220177 22.1258484,19.0749926 L22.4436976,19.3928418 C22.6555971,19.6047413 22.9204715,19.710691 23.1853458,19.710691 C23.5561699,19.710691 23.9799689,19.4987915 24.5097176,19.1279674 L24.9864914,18.8101182 C25.0924411,18.7041685 25.1983909,18.5982187 25.1983909,18.4392941 C25.1983909,18.3863192 25.1983909,18.3333444 25.145416,18.3333444 C25.0924411,18.2273946 24.8275668,18.06847 24.2978181,17.9095454 C23.8210443,17.6976459 23.4502202,17.5916962 23.2383207,17.5916962 C23.0793961,17.5916962 22.8145217,17.6976459 22.4436976,17.9095454 C22.1258484,18.1214449 21.9139489,18.3333444 21.9139489,18.5452438 C21.9139489,18.5452438 21.9669238,18.5982187 22.0198987,18.7041685 C22.3377479,18.9690428 22.6555971,19.1279674 22.9734463,19.1279674 C23.3972453,19.1279674 23.926994,18.9160679 24.6156673,18.3863192 L24.6156673,18.492269 C24.6686422,18.492269 24.6686422,18.5452438 24.6686422,18.5452438 M25.8870642,29.2461676 C26.0989637,29.6445386 26.4697878,29.8447836 26.8935867,29.8447836 C26.9995365,29.8447836 27.1054862,29.8288912 27.211436,29.7971062 C27.3173857,29.7759163 27.4233354,29.7388339 27.4763103,29.696454 C27.5292852,29.6593716 27.58226,29.6222892 27.6352349,29.5799093 C27.7411847,29.5428269 27.7411847,29.5163394 27.7941595,29.489852 L28.6947323,28.7111214 C28.9066318,28.5421316 29.1185313,28.3943317 29.3834056,28.2661325 C29.5953051,28.1389928 29.8072046,28.054233 29.9131543,28.0065556 C30.0720789,27.9641757 30.1780287,27.9006059 30.2839784,27.8158461 C30.3369533,27.7363838 30.3899282,27.6357315 30.3899282,27.5085919 C30.3899282,27.3549647 30.2839784,27.23842 30.1780287,27.1536602 C30.0720789,27.0689004 29.9661292,27.0106281 29.8601795,26.9735457 C29.7542297,26.9364633 29.64828,26.8517035 29.4893554,26.7086713 C29.3834056,26.5709367 29.2774559,26.3802271 29.224481,26.1312452 L29.1715061,25.823991 C29.1185313,25.6809588 29.1185313,25.5750091 29.0655564,25.5167367 C29.0655564,25.5008443 29.0655564,25.4955468 29.0125815,25.4955468 C28.9596067,25.4955468 28.8536569,25.5432242 28.8006821,25.6332815 C28.6947323,25.7233387 28.5887826,25.823991 28.4828328,25.9299407 C28.429858,26.0358905 28.2709334,26.1312452 28.1649836,26.2213025 C28.006059,26.3113598 27.8471344,26.3590372 27.7411847,26.3590372 C27.3173857,26.3590372 27.1054862,26.2424925 26.9465616,26.0147005 C26.8406119,25.8451809 26.787637,25.6491739 26.7346621,25.4266795 C26.6287124,25.3366222 26.5757375,25.2889448 26.4697878,25.2889448 C26.2049134,25.2889448 26.0989637,25.5644141 26.0989637,26.1206503 L26.0989637,26.2954673 L26.0989637,26.9099758 L26.0989637,27.3814522 L26.0989637,27.6092441 L26.0989637,27.7681687 C26.0989637,27.8158461 26.0459888,27.9217958 26.0459888,28.0860179 C25.9930139,28.25024 25.9930139,28.4367116 25.9930139,28.6475516 L25.8870642,29.2355726 L25.8870642,29.2445784 M18.205708,28.9643413 C18.6983743,29.0363871 19.2652054,29.190544 19.9062014,29.4257524 C20.5471973,29.6588418 20.9392113,29.780684 21.0822435,29.780684 C21.4530676,29.780684 21.7603218,29.6164619 22.0146012,29.2991425 C22.0675761,29.1963712 22.0675761,29.0755885 22.0675761,28.9367944 C22.0675761,28.4361818 21.7656193,27.8031321 21.1617058,27.0349965 L20.8014767,26.5529252 C20.7273119,26.452273 20.6372546,26.2986458 20.5207099,26.0920438 C20.4094626,25.8854418 20.3088104,25.7265172 20.2293481,25.61527 C20.1604807,25.4934278 20.0492335,25.3715856 19.9062014,25.2497434 C19.7684667,25.1279012 19.6095421,25.0484389 19.434725,25.006059 C19.2122306,25.0484389 19.0586034,25.1226037 18.9844386,25.223256 C18.9102738,25.3239082 18.8678939,25.4351554 18.8572989,25.5517002 C18.8414065,25.6629474 18.8096216,25.7371122 18.7566467,25.7741946 C18.7036718,25.8059795 18.6136145,25.832467 18.4917723,25.8589544 C18.4652849,25.8589544 18.4176075,25.8589544 18.3487402,25.8642519 L18.205708,25.8642519 C17.9249412,25.8642519 17.7342317,25.8960368 17.6335794,25.9490117 C17.5011423,26.1026388 17.4322749,26.2774559 17.4322749,26.4628679 C17.4322749,26.5476277 17.4534649,26.6906599 17.4958448,26.8919644 C17.5382247,27.0879714 17.5594146,27.246896 17.5594146,27.3581432 C17.5594146,27.5753402 17.4958448,27.7925372 17.3634076,28.0097341 C17.2309704,28.2375261 17.1621031,28.4070457 17.1621031,28.5278284 C17.215078,28.7333709 17.5647121,28.8779923 18.205708,28.962752 M19.9697712,24.1473364 C19.9697712,23.7818098 20.065126,23.3792007 20.261133,22.9024269 C20.4518425,22.4256531 20.6425521,22.1078039 20.8279641,21.8959044 C20.8173691,21.8429295 20.7908817,21.8429295 20.7485018,21.8429295 L20.6955269,21.7899546 C20.5418998,21.9488793 20.3564878,22.3197033 20.1339933,22.849452 C19.9114989,23.3262259 19.7949541,23.7659173 19.7949541,24.089064 C19.7949541,24.3274509 19.8532265,24.5340529 19.9591762,24.7141675 C20.075721,24.8889845 20.3564878,25.1432639 20.8014767,25.4664106 L21.3630103,25.8319372 C21.9616263,26.351091 22.2794755,26.7113201 22.2794755,26.9232195 C22.2794755,27.0344668 22.2265007,27.145714 22.0675761,27.2675562 C21.9616263,27.3946959 21.8185942,27.4582657 21.696752,27.4582657 C21.686157,27.4582657 21.6808595,27.4688607 21.6808595,27.4953481 C21.6808595,27.5006456 21.7338344,27.6065954 21.8450816,27.8131974 C22.0675761,28.1151541 22.5443499,28.2634838 23.1800483,28.2634838 C24.3454955,28.2634838 25.2460683,27.7867099 25.9347416,26.8331623 C25.9347416,26.5682879 25.9347416,26.4040658 25.8817667,26.3351985 L25.8817667,26.1391915 C25.8817667,25.7948548 25.9347416,25.535278 26.0406913,25.3657584 C26.1466411,25.1962388 26.2525908,25.1167765 26.4115154,25.1167765 C26.5174652,25.1167765 26.6234149,25.1538589 26.7293646,25.2333212 C26.7823395,24.8254147 26.7823395,24.4704831 26.7823395,24.1526338 C26.7823395,23.6705625 26.7823395,23.273251 26.6763898,22.9024269 C26.6234149,22.5845777 26.5174652,22.3197033 26.4115154,22.1078039 C26.3055657,21.9488793 26.1996159,21.7899546 26.0936662,21.63103 C25.9877165,21.4721054 25.9347416,21.3131808 25.8287918,21.1542562 C25.775817,20.9423567 25.7228421,20.7834321 25.7228421,20.5185578 C25.5639175,20.2536834 25.4579678,19.9888091 25.2990431,19.7239347 C25.1930934,19.4590604 25.0871437,19.194186 24.9811939,18.9822865 L24.5044201,19.3531106 C23.9746714,19.7239347 23.5508724,19.8828593 23.1800483,19.8828593 C22.8621991,19.8828593 22.5973248,19.8298844 22.4384002,19.617985 L22.1205509,19.3531106 C22.1205509,19.5120352 22.0675761,19.7239347 21.9616263,19.9358342 L21.6278846,20.5715326 C21.479555,20.9423567 21.4000927,21.1542562 21.3842002,21.3131808 C21.3630103,21.4191305 21.3471178,21.5250803 21.3365229,21.5250803 L20.9392113,22.3197033 C20.5101149,23.1143264 20.2929179,23.8506771 20.2929179,24.4598881 C20.2929179,24.5817303 20.3035129,24.70887 20.3247028,24.8360097 C20.0863159,24.6717876 19.9697712,24.4439956 19.9697712,24.1473364 M23.7627719,29.1587591 C23.0740986,29.1587591 22.5443499,29.2519948 22.1735258,29.4368771 L22.1735258,29.4209847 C21.9086515,29.7388339 21.6119922,29.903056 21.1987882,29.903056 C20.9392113,29.903056 20.5313048,29.8024037 19.9803662,29.6010992 C19.4241301,29.4103897 18.9314638,29.2641791 18.5023673,29.1677648 C18.4599874,29.1555806 18.3646327,29.1375691 18.2110055,29.1132007 C18.0626759,29.089362 17.9249412,29.0649935 17.803099,29.0406251 C17.6918518,29.0167864 17.5647121,28.9807635 17.4269775,28.9320266 C17.2945403,28.8901765 17.1885905,28.8356124 17.1091282,28.7693938 C17.0360229,28.7026454 17,28.6274211 17,28.5431911 C17,28.4584313 17.0180115,28.3678443 17.0540344,28.27143 C17.0879383,28.2131576 17.1250207,28.1548853 17.1621031,28.1019104 C17.1991855,28.043638 17.2309704,27.9906632 17.2521604,27.9376883 C17.2839453,27.8900109 17.3051353,27.8423335 17.3263252,27.7893587 C17.3475151,27.7416813 17.3687051,27.6940039 17.3793001,27.6357315 C17.389895,27.5827567 17.40049,27.5297818 17.40049,27.4768069 C17.40049,27.4238321 17.3793001,27.2649075 17.3369202,26.9841406 C17.2945403,26.7086713 17.2733503,26.5338543 17.2733503,26.4596894 C17.2733503,26.2266 17.3263252,26.041188 17.4428699,25.9087508 C17.5594146,25.7763136 17.6706619,25.7074463 17.7872066,25.7074463 L18.3964176,25.7074463 C18.444095,25.7074463 18.5182598,25.6809588 18.629507,25.617389 C18.6665894,25.5326292 18.6983743,25.4637619 18.7195643,25.400192 C18.7460517,25.3366222 18.7566467,25.2889448 18.7672417,25.2677549 C18.7778366,25.2359699 18.7884316,25.204185 18.7990266,25.1776976 C18.8202165,25.1406152 18.846704,25.0982353 18.8837864,25.0558554 C18.8414065,25.0028805 18.8202165,24.9340132 18.8202165,24.8492534 C18.8202165,24.790981 18.8202165,24.7380062 18.8308115,24.7062212 C18.8308115,24.5155117 18.9208688,24.2453399 19.1115783,23.8904082 L19.2969904,23.5566666 C19.4506175,23.2706023 19.5671622,23.0587028 19.651922,22.8468033 C19.7419793,22.6349038 19.837334,22.3170546 19.9432838,21.8932556 C20.0280436,21.5224315 20.2293481,21.1516075 20.5471973,20.7807834 L20.9445088,20.3040095 C21.2199781,19.9861603 21.4000927,19.721286 21.500745,19.5093865 C21.6013972,19.297487 21.6543721,19.0326127 21.6543721,18.8207132 C21.6543721,18.7147634 21.6278846,18.3969142 21.5696123,17.8671655 C21.5166374,17.3374168 21.49015,16.8076681 21.49015,16.3308943 C21.49015,15.9600702 21.5219349,15.6951958 21.5908022,15.4303215 C21.6596696,15.1654471 21.7815118,14.9005728 21.9616263,14.6886733 C22.1205509,14.4767738 22.3324504,14.2648744 22.6502996,14.1589246 C22.9681489,14.0529749 23.3389729,14 23.7627719,14 C23.9216965,14 24.0806211,14 24.2395457,14.0529749 C24.3984704,14.0529749 24.6103698,14.1059497 24.8752442,14.2118995 C25.0871437,14.3178492 25.2990431,14.423799 25.4579678,14.5827236 C25.6698672,14.7416482 25.8287918,15.0065225 25.9877165,15.2713969 C26.0936662,15.5892461 26.1996159,15.9070953 26.2525908,16.3308943 C26.3055657,16.5957686 26.3055657,16.860643 26.3585405,17.2314671 C26.3585405,17.5493163 26.4115154,17.7612158 26.4115154,17.9201404 C26.4644903,18.079065 26.4644903,18.2909645 26.5174652,18.5558388 C26.57044,18.7677383 26.6234149,18.9796378 26.7293646,19.1385624 C26.8353144,19.3504619 26.9412641,19.5623614 27.1001887,19.7742608 C27.2591133,20.0391352 27.4710128,20.3040095 27.6829123,20.6218588 C28.1596861,21.1516075 28.5305102,21.734331 28.7424097,22.3170546 C29.007284,22.8468033 29.1662087,23.5354766 29.1662087,24.2718273 C29.1662087,24.6373539 29.1132338,24.9922855 29.007284,25.3366222 C29.1132338,25.3366222 29.1662087,25.3790021 29.2191835,25.4531669 C29.2721584,25.5273317 29.3251333,25.6862563 29.3781081,25.9352382 L29.431083,26.3272523 C29.4840579,26.443797 29.5370327,26.5550442 29.6959574,26.650399 C29.8019071,26.7457537 29.9078568,26.825216 30.0667814,26.8887859 C30.1727312,26.9417608 30.3316558,27.0159256 30.4376055,27.1112803 C30.5435553,27.2172301 30.5965301,27.3284773 30.5965301,27.445022 C30.5965301,27.6251366 30.5435553,27.7575738 30.4376055,27.8529285 C30.3316558,27.9588783 30.2257061,28.0330431 30.0667814,28.0807205 C29.9608317,28.1336953 29.7489322,28.2396451 29.431083,28.3890342 C29.1662087,28.5458398 28.9013343,28.7360196 28.63646,28.9611628 L28.1067113,29.4119789 C27.8948118,29.6185809 27.6829123,29.7669106 27.5239877,29.8569679 C27.3650631,29.9523226 27.1531636,30 26.9412641,30 L26.57044,29.9576201 C26.1466411,29.8463729 25.8817667,29.6344734 25.7228421,29.3113267 C24.8752442,29.2085554 24.1865709,29.1576996 23.7627719,29.1576996" id="Shape"></path>
                </g>
            </g>
        </g>
    </g>
</svg>