<?xml version="1.0" encoding="UTF-8"?>
<svg width="13px" height="16px" viewBox="0 0 13 16" version="1.1" xmlns="http://www.w3.org/2000/svg" xmlns:xlink="http://www.w3.org/1999/xlink">
    <!-- Generator: sketchtool 50.2 (55047) - http://www.bohemiancoding.com/sketch -->
    <title>D5DFFFFC-18C2-4A9A-8DE9-8EF34CE57C72</title>
    <desc>Created with sketchtool.</desc>
    <defs></defs>
    <g id="Page-1" stroke="none" stroke-width="1" fill="none" fill-rule="evenodd">
        <g id="Landing2" transform="translate(-143.000000, -639.000000)" fill="#FFFFFF" fill-rule="nonzero">
            <g id="Group-3" transform="translate(126.000000, 592.000000)">
                <g id="Mac" transform="translate(0.000000, 34.000000)">
                    <path d="M29.6278101,18.2931241 C29.5384309,18.3532826 29.4498643,18.4109688 29.3637352,18.4719514 C28.9534036,18.7620308 28.6048248,19.1122686 28.3448127,19.5490358 C28.1359905,19.901746 28.0027342,20.281651 27.943419,20.6879269 C27.8621652,21.2458352 27.8914166,21.7971508 28.0531116,22.3377533 C28.2261822,22.9154397 28.5471346,23.3975318 28.9818424,23.8071041 C29.2897943,24.0980075 29.6334978,24.3328729 30.0202659,24.5009871 C30.0275787,24.5042834 30.034079,24.5084039 30.0454545,24.5133484 C30.0283912,24.5619697 30.0121405,24.6089427 29.9958897,24.6567399 C29.6895629,25.5525247 29.2451047,26.3716693 28.6787658,27.1257108 C28.4626307,27.4133178 28.2464956,27.7001008 27.9921713,27.9539203 C27.7695359,28.1764243 27.5273996,28.3733816 27.2405737,28.5077081 C26.8944325,28.6700537 26.5344782,28.7236195 26.1566481,28.6618128 C25.8129446,28.6057747 25.4863043,28.4912264 25.1645393,28.3593721 C24.8395242,28.2258697 24.5047586,28.1310994 24.1553673,28.089895 C23.7978506,28.0478664 23.4452091,28.0824782 23.0950053,28.164063 C22.8065543,28.2308142 22.5327291,28.3412421 22.2580912,28.4483737 C21.9875161,28.5538571 21.7112532,28.6395624 21.4236148,28.6848873 C21.0644731,28.7409253 20.7264573,28.6799427 20.4055048,28.5101804 C20.0536759,28.3239363 19.7627873,28.0585796 19.5003376,27.7619075 C18.4399756,26.563682 17.697316,25.1891014 17.291047,23.630749 C17.1805419,23.2055191 17.0968505,22.7753446 17.0489107,22.3385773 C17.0001584,21.8968656 16.9855328,21.4543298 17.0155967,21.0101458 C17.0635364,20.3030773 17.2195437,19.624852 17.5429338,18.9919516 C17.8386976,18.412617 18.2311534,17.9156913 18.7528027,17.5283694 C19.262264,17.1501126 19.8269778,16.9020618 20.4534446,16.8056433 C20.6736423,16.7718557 20.8938401,16.7504294 21.1164755,16.7644389 C21.3651121,16.7792725 21.6080609,16.8278937 21.8445094,16.9020618 C22.1150846,16.9869429 22.3832221,17.0825373 22.6513596,17.1773075 C22.917872,17.2712537 23.1843845,17.3660239 23.4598348,17.4344233 C23.6223424,17.4748037 23.774287,17.4443124 23.925419,17.3923947 C24.3227501,17.2572441 24.718456,17.117149 25.1149745,16.9819984 C25.4944297,16.8534405 25.8811978,16.7570221 26.281779,16.7265308 C26.4971015,16.710049 26.7124241,16.7248826 26.9261215,16.7512535 C27.2462615,16.7916338 27.5607136,16.858385 27.8670404,16.9638684 C28.5853239,17.2127433 29.1719763,17.6429178 29.6139969,18.2716978 C29.6188721,18.2791146 29.6229348,18.2857073 29.6278101,18.2931241 Z M26.7693017,13 C26.7733644,13.0626308 26.7798647,13.1219652 26.7814898,13.1821237 C26.8115537,13.9567674 26.5734801,14.6457059 26.1265842,15.2662449 C25.8470712,15.6543909 25.5171808,15.9906192 25.1230999,16.2592723 C24.836274,16.4545814 24.5266971,16.5979729 24.1878688,16.6704927 C23.9863594,16.7133454 23.7832249,16.7257067 23.5784653,16.7149935 C23.5662773,16.7141694 23.5549017,16.7116972 23.5419011,16.710049 C23.5215877,16.5575925 23.517525,16.4067842 23.528088,16.2559759 C23.5841531,15.4681468 23.9075432,14.7973383 24.4096916,14.2072905 C24.7956471,13.7532174 25.2791072,13.4417117 25.8243201,13.22168 C26.1095209,13.1063075 26.4044722,13.0271949 26.7116115,13.0032964 C26.7286748,13.0024723 26.7465506,13.0016482 26.7693017,13 Z" id="Combined-Shape"></path>
                </g>
            </g>
        </g>
    </g>
</svg>