<?xml version="1.0" encoding="utf-8"?>
<!-- Generator: Adobe Illustrator 21.1.0, SVG Export Plug-In . SVG Version: 6.00 Build 0)  -->
<svg version="1.1" id="Layer_1" xmlns="http://www.w3.org/2000/svg" xmlns:xlink="http://www.w3.org/1999/xlink" x="0px" y="0px"
	 viewBox="0 0 24 37" style="enable-background:new 0 0 24 37;" xml:space="preserve">
<style type="text/css">
	.st0{fill:none;stroke:#FFFFFF;stroke-width:2;}
	.st1{fill:#FFFFFF;}
</style>
<title>A7FEA20C-E8CF-4C44-A79C-4FD0A0590FAB</title>
<desc>Created with sketchtool.</desc>
<g id="Page-1">
	<g id="Landing" transform="translate(-133.000000, -287.000000)">
		<g id="Phone" transform="translate(134.000000, 288.000000)">
			<path id="Shape" class="st0" d="M18.4,35H3c-1.5,0-2.8-1.2-2.8-2.8V2.8c0-1.5,1.2-2.8,2.8-2.8h15.4c1.5,0,2.8,1.2,2.8,2.8v29.4
				C21.2,33.8,19.9,35,18.4,35z"/>
		</g>
	</g>
</g>
<g id="Page-1_1_">
	<g id="Landing_1_" transform="translate(-139.000000, -303.000000)">
		<g id="Phone_1_" transform="translate(134.000000, 288.000000)">
			<path id="Shape_1_" class="st1" d="M12.6,34.2c-0.4,0-0.7,0.3-0.7,0.7c0,0.4,0.3,0.7,0.7,0.7c0.4,0,0.7-0.3,0.7-0.7
				C13.2,34.5,13,34.2,12.6,34.2z M20.7,31.5c-0.4,0-0.7,0.3-0.7,0.7c0,0.6-0.1,0.7-0.7,0.7c-0.4,0-0.7,0.3-0.7,0.7c0,0,0,0,0,0
				c0,0.5-0.1,0.6-0.7,0.6c0,0,0,0,0,0c-0.4,0-0.6,0.3-0.6,0.7c0,0.4,0.3,0.7,0.7,0.7c0.4,0,0.7-0.3,0.7-0.6v0
				c0-0.5,0.2-0.7,0.7-0.7c0,0,0,0,0,0c0.4,0,0.7-0.3,0.7-0.7c0-0.5,0.2-0.7,0.7-0.7c0.4,0,0.7-0.3,0.7-0.7
				C21.3,31.8,21,31.5,20.7,31.5z M16.6,32.9L16.6,32.9c-0.6,0-0.7-0.1-0.7-0.7l0,0c0-0.4-0.3-0.7-0.7-0.7s-0.7,0.3-0.7,0.7l0,0
				c0,0.5-0.1,0.7-0.7,0.7l0,0l0,0c-0.4,0-0.7,0.3-0.7,0.7s0.3,0.7,0.7,0.7s0.7-0.3,0.7-0.7c0,0,0,0,0,0c0-0.5,0.2-0.7,0.7-0.7
				s0.7,0.2,0.7,0.7l0,0c0,0.4,0.3,0.7,0.7,0.7c0.4,0,0.7-0.3,0.7-0.7C17.3,33.2,17,32.9,16.6,32.9z"/>
		</g>
	</g>
</g>
<g id="Page-1_2_">
	<g id="Landing_2_" transform="translate(-143.000000, -318.000000)">
		<g id="Phone_2_" transform="translate(134.000000, 288.000000)">
			<circle id="Oval" class="st1" cx="20.7" cy="62.9" r="1.1"/>
		</g>
	</g>
</g>
</svg>
