<svg xmlns="http://www.w3.org/2000/svg" viewBox="0 0 45.12 19.37"><defs><style>.a{fill:#fff;}</style></defs><title>logo-icon</title><path class="a" d="M3.22,12.91A3.23,3.23,0,1,1,0,16.14,3.23,3.23,0,0,1,3.22,12.91ZM41.9,0a3.23,3.23,0,0,1,0,6.46c-2.48,0-3.22.88-3.22,3.23a1,1,0,0,1,0,.21,3.22,3.22,0,0,1-3.2,3h-.07c-2.42,0-3.15.9-3.15,3.23a.92.92,0,0,1,0,.24,3.22,3.22,0,1,1-3.54-3.43,1.35,1.35,0,0,1,.35,0c2.78,0,3.21-.64,3.22-3.15,0,0,0,0,0-.07a3.22,3.22,0,0,1,2.93-3.2,1.44,1.44,0,0,1,.3,0c2.81,0,3.22-.65,3.22-3.23A3.23,3.23,0,0,1,41.9,0Zm-19,6.49a3.22,3.22,0,1,1-3.52,3.2s0,0,0,0c0-2.33-.75-3.2-3.22-3.2h0c-2.48,0-3.22.88-3.22,3.23a1,1,0,0,1,0,.23A3.22,3.22,0,1,1,9.38,6.49a1.44,1.44,0,0,1,.28,0h0c2.8,0,3.22-.65,3.22-3.2,0,0,0,0,0,0a3.22,3.22,0,1,1,6.45,0h0c0,2.58.41,3.23,3.22,3.23A1.43,1.43,0,0,1,22.86,6.49Z"/></svg>